<svg xmlns="http://www.w3.org/2000/svg" version="1.1" xmlns:xlink="http://www.w3.org/1999/xlink" xmlns:svgjs="http://svgjs.dev/svgjs" width="1500" height="1500" viewBox="0 0 1500 1500"><rect width="1500" height="1500" fill="#000000"></rect><g transform="matrix(0.6666666666666666,0,0,0.6666666666666666,249.39393939393938,625.5418133457763)"><svg viewBox="0 0 396 99" data-background-color="#ffffff" preserveAspectRatio="xMidYMid meet" height="375" width="1500" xmlns="http://www.w3.org/2000/svg" xmlns:xlink="http://www.w3.org/1999/xlink"><g id="tight-bounds" transform="matrix(1,0,0,1,0.2400000000000091,-0.21455808492743245)"><svg viewBox="0 0 395.52 99.42911616985485" height="99.42911616985485" width="395.52"><g><svg viewBox="0 0 669.190264209961 168.22662955063734" height="99.42911616985485" width="395.52"><g><rect width="4.6890266197334665" height="168.22662955063734" x="256.7062987951138" y="0" fill="#ffffff" opacity="1" stroke-width="0" stroke="transparent" fill-opacity="1" class="rect-qz-0" data-fill-palette-color="primary" rx="1%" id="qz-0" data-palette-color="#ff5858"></rect></g><g transform="matrix(1,0,0,1,273.67026420996103,0.41847420286227077)"><svg viewBox="0 0 395.52 167.3896811449128" height="167.3896811449128" width="395.52"><g id="textblocktransform"><svg viewBox="0 0 395.52 167.3896811449128" height="167.3896811449128" width="395.52" id="textblock"><g><svg viewBox="0 0 395.52 167.3896811449128" height="167.3896811449128" width="395.52"><g transform="matrix(1,0,0,1,0,0)"><svg width="395.52" viewBox="3.08 -40.41 314.5199999999999 129.02999999999997" height="167.3896811449128" data-palette-color="#ff5858"><svg></svg><svg></svg><svg></svg><g class="wordmark-text-0" data-fill-palette-color="primary" id="text-0"><path d="M5.42 0v-38.16h34.13v6.79h-26.39v9.98h22.41v6.38h-22.41v15.01zM46.12 0v-28.81h7.22v4.15c1.6-1.187 3.287-2.21 5.06-3.07 1.773-0.867 3.54-1.527 5.3-1.98v0l2.12 6.61c-2.78 0.28-5.227 0.903-7.34 1.87-2.107 0.967-3.82 2.33-5.14 4.09v0 17.14zM69.82-9.08v0c0-1.387 0.303-2.65 0.91-3.79 0.6-1.14 1.503-2.12 2.71-2.94 1.2-0.82 2.7-1.453 4.5-1.9 1.8-0.447 3.897-0.67 6.29-0.67v0c1.773 0 3.64 0.13 5.6 0.39 1.96 0.26 3.983 0.657 6.07 1.19v0c-0.08-0.907-0.357-1.747-0.83-2.52-0.473-0.773-1.13-1.443-1.97-2.01-0.833-0.56-1.84-0.993-3.02-1.3-1.18-0.313-2.52-0.47-4.02-0.47v0c-0.813 0-1.71 0.05-2.69 0.15-0.973 0.1-1.98 0.247-3.02 0.44-1.047 0.193-2.077 0.437-3.09 0.73-1.02 0.293-1.97 0.643-2.85 1.05v0l-2.19-5.93c1.087-0.393 2.253-0.75 3.5-1.07 1.247-0.327 2.52-0.61 3.82-0.85 1.3-0.233 2.603-0.417 3.91-0.55 1.3-0.127 2.56-0.19 3.78-0.19v0c5.387 0 9.39 1.373 12.01 4.12 2.62 2.753 3.93 6.97 3.93 12.65v0 12.55h-7.22v-2.71c-0.753 0.44-1.573 0.857-2.46 1.25-0.887 0.387-1.85 0.727-2.89 1.02-1.04 0.293-2.16 0.527-3.36 0.7-1.193 0.167-2.457 0.25-3.79 0.25v0c-2.247 0-4.22-0.243-5.92-0.73-1.7-0.487-3.12-1.163-4.26-2.03-1.14-0.86-2-1.873-2.58-3.04-0.58-1.16-0.87-2.423-0.87-3.79zM77.44-9.33v0c0 0.473 0.123 0.927 0.37 1.36 0.24 0.433 0.63 0.817 1.17 1.15 0.54 0.333 1.227 0.6 2.06 0.8 0.84 0.207 1.853 0.31 3.04 0.31v0c1.273 0 2.503-0.113 3.69-0.34 1.187-0.233 2.293-0.537 3.32-0.91 1.027-0.373 1.953-0.803 2.78-1.29 0.833-0.487 1.527-0.993 2.08-1.52v0-1.27c-1.107-0.307-2.203-0.567-3.29-0.78-1.08-0.207-2.113-0.373-3.1-0.5-0.98-0.12-1.907-0.203-2.78-0.25-0.873-0.053-1.633-0.08-2.28-0.08v0c-1.353 0-2.477 0.09-3.37 0.27-0.893 0.18-1.617 0.42-2.17 0.72-0.553 0.3-0.947 0.653-1.18 1.06-0.227 0.407-0.34 0.83-0.34 1.27zM112.72 0v-28.81h7.23v2.44c1.92-1.087 3.753-1.85 5.5-2.29 1.753-0.44 3.467-0.66 5.14-0.66v0c2.2 0 4.233 0.32 6.1 0.96 1.873 0.647 3.493 1.603 4.86 2.87 1.367 1.273 2.437 2.857 3.21 4.75 0.773 1.893 1.16 4.087 1.16 6.58v0 14.16h-7.2v-12.99c0-1.58-0.223-2.99-0.67-4.23-0.447-1.247-1.09-2.297-1.93-3.15-0.84-0.86-1.857-1.513-3.05-1.96-1.2-0.447-2.54-0.67-4.02-0.67v0c-0.78 0-1.58 0.083-2.4 0.25-0.82 0.16-1.627 0.39-2.42 0.69-0.787 0.3-1.547 0.673-2.28 1.12-0.733 0.453-1.4 0.963-2 1.53v0 19.41zM153.05-14.33v0c0-2.113 0.387-4.087 1.16-5.92 0.773-1.833 1.903-3.42 3.39-4.76 1.493-1.347 3.317-2.4 5.47-3.16 2.16-0.767 4.623-1.15 7.39-1.15v0c1.207 0 2.42 0.073 3.64 0.22 1.22 0.147 2.393 0.353 3.52 0.62 1.133 0.267 2.197 0.583 3.19 0.95 0.993 0.367 1.857 0.77 2.59 1.21v0l-3.35 5.45c-1.573-0.733-3.067-1.273-4.48-1.62-1.407-0.34-2.833-0.51-4.28-0.51v0c-1.66 0-3.15 0.217-4.47 0.65-1.32 0.433-2.44 1.037-3.36 1.81-0.92 0.773-1.62 1.683-2.1 2.73-0.48 1.047-0.72 2.19-0.72 3.43v0c0 1.24 0.257 2.383 0.77 3.43 0.513 1.047 1.24 1.95 2.18 2.71 0.933 0.76 2.063 1.353 3.39 1.78 1.327 0.433 2.803 0.65 4.43 0.65v0c1.793 0 3.483-0.253 5.07-0.76 1.587-0.5 3.063-1.173 4.43-2.02v0l3.34 5.44c-0.86 0.52-1.793 1.003-2.8 1.45-1.013 0.447-2.093 0.833-3.24 1.16-1.147 0.327-2.35 0.583-3.61 0.77-1.26 0.187-2.567 0.28-3.92 0.28v0c-2.753 0-5.22-0.373-7.4-1.12-2.18-0.747-4.027-1.783-5.54-3.11-1.513-1.327-2.673-2.893-3.48-4.7-0.807-1.807-1.21-3.777-1.21-5.91zM195.85-32.74v0c-0.713 0-1.36-0.1-1.94-0.3-0.58-0.207-1.073-0.483-1.48-0.83-0.407-0.353-0.72-0.763-0.94-1.23-0.22-0.46-0.33-0.95-0.33-1.47v0c0-0.54 0.11-1.04 0.33-1.5 0.22-0.467 0.533-0.87 0.94-1.21 0.407-0.34 0.9-0.613 1.48-0.82 0.58-0.207 1.227-0.31 1.94-0.31v0c0.733 0 1.387 0.103 1.96 0.31 0.58 0.207 1.073 0.48 1.48 0.82 0.407 0.34 0.72 0.743 0.94 1.21 0.22 0.46 0.33 0.96 0.33 1.5v0c0 0.52-0.11 1.01-0.33 1.47-0.22 0.467-0.533 0.877-0.94 1.23-0.407 0.347-0.9 0.623-1.48 0.83-0.573 0.2-1.227 0.3-1.96 0.3zM192.24 0v-28.81h7.22v28.81zM206.74-3.37l3.12-5.47c1.953 1.173 4.103 2.037 6.45 2.59 2.34 0.553 4.74 0.83 7.2 0.83v0c1.66 0 3.043-0.113 4.15-0.34 1.107-0.227 1.993-0.52 2.66-0.88 0.667-0.36 1.14-0.767 1.42-1.22 0.273-0.453 0.41-0.917 0.41-1.39v0c0-0.687-0.297-1.273-0.89-1.76-0.593-0.487-1.573-0.73-2.94-0.73v0c-0.633 0-1.317 0.04-2.05 0.12-0.733 0.08-1.503 0.167-2.31 0.26-0.807 0.087-1.643 0.17-2.51 0.25-0.873 0.08-1.757 0.12-2.65 0.12v0c-1.953 0-3.617-0.21-4.99-0.63-1.38-0.427-2.5-1.003-3.36-1.73-0.86-0.733-1.487-1.6-1.88-2.6-0.393-1.007-0.59-2.087-0.59-3.24v0c0-1.467 0.343-2.817 1.03-4.05 0.68-1.24 1.657-2.31 2.93-3.21 1.267-0.907 2.8-1.61 4.6-2.11 1.8-0.507 3.807-0.76 6.02-0.76v0c1.153 0 2.36 0.07 3.62 0.21 1.267 0.133 2.51 0.317 3.73 0.55 1.22 0.227 2.39 0.49 3.51 0.79 1.127 0.3 2.12 0.62 2.98 0.96v0l-2.27 5.62c-1.84-0.687-3.673-1.227-5.5-1.62-1.833-0.4-3.72-0.6-5.66-0.6v0c-1.347 0-2.49 0.1-3.43 0.3-0.933 0.207-1.693 0.477-2.28 0.81-0.587 0.333-1.013 0.717-1.28 1.15-0.267 0.427-0.4 0.877-0.4 1.35v0c0 0.34 0.067 0.65 0.2 0.93 0.14 0.273 0.37 0.513 0.69 0.72 0.313 0.2 0.727 0.353 1.24 0.46 0.513 0.107 1.143 0.16 1.89 0.16v0c0.687 0 1.413-0.04 2.18-0.12 0.76-0.08 1.557-0.167 2.39-0.26 0.833-0.087 1.693-0.17 2.58-0.25 0.887-0.087 1.793-0.13 2.72-0.13v0c1.727 0 3.237 0.203 4.53 0.61 1.293 0.407 2.363 0.977 3.21 1.71 0.847 0.733 1.48 1.597 1.9 2.59 0.427 0.993 0.64 2.077 0.64 3.25v0c0 1.513-0.35 2.92-1.05 4.22-0.7 1.3-1.743 2.427-3.13 3.38-1.38 0.953-3.1 1.7-5.16 2.24-2.06 0.533-4.44 0.8-7.14 0.8v0c-1.66 0-3.263-0.1-4.81-0.3-1.547-0.207-3.02-0.483-4.42-0.83-1.4-0.353-2.713-0.767-3.94-1.24-1.233-0.467-2.353-0.97-3.36-1.51zM244.51-14.33v0c0-2.113 0.387-4.087 1.16-5.92 0.773-1.833 1.903-3.42 3.39-4.76 1.487-1.347 3.31-2.4 5.47-3.16 2.153-0.767 4.613-1.15 7.38-1.15v0c1.207 0 2.42 0.073 3.64 0.22 1.22 0.147 2.397 0.353 3.53 0.62 1.133 0.267 2.197 0.583 3.19 0.95 0.987 0.367 1.847 0.77 2.58 1.21v0l-3.34 5.45c-1.58-0.733-3.073-1.273-4.48-1.62-1.407-0.34-2.837-0.51-4.29-0.51v0c-1.66 0-3.147 0.217-4.46 0.65-1.32 0.433-2.44 1.037-3.36 1.81-0.92 0.773-1.62 1.683-2.1 2.73-0.48 1.047-0.72 2.19-0.72 3.43v0c0 1.24 0.257 2.383 0.77 3.43 0.513 1.047 1.237 1.95 2.17 2.71 0.94 0.76 2.073 1.353 3.4 1.78 1.32 0.433 2.797 0.65 4.43 0.65v0c1.787 0 3.473-0.253 5.06-0.76 1.587-0.5 3.063-1.173 4.43-2.02v0l3.35 5.44c-0.867 0.52-1.803 1.003-2.81 1.45-1.007 0.447-2.083 0.833-3.23 1.16-1.153 0.327-2.36 0.583-3.62 0.77-1.26 0.187-2.567 0.28-3.92 0.28v0c-2.747 0-5.21-0.373-7.39-1.12-2.187-0.747-4.037-1.783-5.55-3.11-1.513-1.327-2.67-2.893-3.47-4.7-0.807-1.807-1.21-3.777-1.21-5.91zM281.76-14.4v0c0-2.067 0.42-4.003 1.26-5.81 0.84-1.807 2.037-3.387 3.59-4.74 1.553-1.353 3.433-2.42 5.64-3.2 2.207-0.78 4.683-1.17 7.43-1.17v0c2.753 0 5.233 0.39 7.44 1.17 2.2 0.78 4.08 1.847 5.64 3.2 1.553 1.353 2.75 2.933 3.59 4.74 0.833 1.807 1.25 3.743 1.25 5.81v0c0 2.067-0.417 4.003-1.25 5.81-0.84 1.807-2.037 3.383-3.59 4.73-1.56 1.353-3.44 2.42-5.64 3.2-2.207 0.78-4.687 1.17-7.44 1.17v0c-2.747 0-5.223-0.39-7.43-1.17-2.207-0.78-4.087-1.847-5.64-3.2-1.553-1.347-2.75-2.923-3.59-4.73-0.84-1.807-1.26-3.743-1.26-5.81zM289.36-14.4v0c0 1.153 0.23 2.247 0.69 3.28 0.467 1.033 1.143 1.943 2.03 2.73 0.887 0.793 1.967 1.42 3.24 1.88 1.28 0.467 2.733 0.7 4.36 0.7v0c1.627 0 3.08-0.233 4.36-0.7 1.28-0.46 2.363-1.087 3.25-1.88 0.887-0.787 1.56-1.697 2.02-2.73 0.467-1.033 0.7-2.127 0.7-3.28v0c0-1.16-0.233-2.26-0.7-3.3-0.46-1.04-1.133-1.957-2.02-2.75-0.887-0.787-1.97-1.413-3.25-1.88-1.28-0.46-2.733-0.69-4.36-0.69v0c-1.627 0-3.08 0.23-4.36 0.69-1.273 0.467-2.353 1.093-3.24 1.88-0.887 0.793-1.563 1.71-2.03 2.75-0.46 1.04-0.69 2.14-0.69 3.3z" fill="#ffffff" fill-rule="nonzero" stroke="none" stroke-width="1" stroke-linecap="butt" stroke-linejoin="miter" stroke-miterlimit="10" stroke-dasharray="" stroke-dashoffset="0" font-family="none" font-weight="none" font-size="none" text-anchor="none" style="mix-blend-mode: normal" data-fill-palette-color="primary" opacity="1"></path><path transform="translate(0,44.04)" d="M3.08-5.08l4.12-6.27c1.387 0.78 2.79 1.483 4.21 2.11 1.427 0.627 2.903 1.157 4.43 1.59 1.533 0.427 3.143 0.753 4.83 0.98 1.68 0.233 3.473 0.35 5.38 0.35v0c2.293 0 4.247-0.15 5.86-0.45 1.613-0.307 2.927-0.723 3.94-1.25 1.02-0.527 1.76-1.157 2.22-1.89 0.467-0.733 0.7-1.53 0.7-2.39v0c0-1.387-0.577-2.483-1.73-3.29-1.16-0.807-2.943-1.21-5.35-1.21v0c-1.06 0-2.177 0.07-3.35 0.21-1.167 0.14-2.35 0.29-3.55 0.45-1.193 0.167-2.373 0.317-3.54 0.45-1.16 0.14-2.253 0.21-3.28 0.21v0c-1.707 0-3.347-0.22-4.92-0.66-1.573-0.44-2.967-1.1-4.18-1.98-1.207-0.873-2.17-1.97-2.89-3.29-0.713-1.32-1.07-2.86-1.07-4.62v0c0-1.04 0.14-2.073 0.42-3.1 0.287-1.02 0.743-2 1.37-2.94 0.627-0.933 1.437-1.803 2.43-2.61 0.993-0.807 2.193-1.503 3.6-2.09 1.407-0.587 3.033-1.047 4.88-1.38 1.853-0.333 3.96-0.5 6.32-0.5v0c1.707 0 3.423 0.093 5.15 0.28 1.727 0.187 3.407 0.453 5.04 0.8 1.633 0.34 3.207 0.75 4.72 1.23 1.513 0.48 2.923 1.013 4.23 1.6v0l-3.4 6.25c-1.073-0.473-2.227-0.91-3.46-1.31-1.24-0.4-2.537-0.743-3.89-1.03-1.347-0.293-2.74-0.527-4.18-0.7-1.44-0.173-2.91-0.26-4.41-0.26v0c-2.133 0-3.887 0.157-5.26 0.47-1.373 0.307-2.467 0.7-3.28 1.18-0.82 0.48-1.387 1.017-1.7 1.61-0.32 0.593-0.48 1.183-0.48 1.77v0c0 1.14 0.513 2.073 1.54 2.8 1.027 0.72 2.59 1.08 4.69 1.08v0c0.847 0 1.82-0.06 2.92-0.18 1.093-0.12 2.247-0.253 3.46-0.4 1.213-0.147 2.45-0.28 3.71-0.4 1.267-0.127 2.493-0.19 3.68-0.19v0c2.247 0 4.237 0.253 5.97 0.76 1.733 0.507 3.183 1.227 4.35 2.16 1.173 0.933 2.063 2.063 2.67 3.39 0.6 1.327 0.9 2.813 0.9 4.46v0c0 2.193-0.51 4.15-1.53 5.87-1.013 1.72-2.46 3.17-4.34 4.35-1.88 1.18-4.147 2.073-6.8 2.68-2.653 0.613-5.607 0.92-8.86 0.92v0c-2.153 0-4.253-0.137-6.3-0.41-2.053-0.267-4.02-0.647-5.9-1.14-1.88-0.5-3.67-1.097-5.37-1.79-1.7-0.687-3.273-1.447-4.72-2.28zM53.15-9.08v0c0-1.387 0.3-2.65 0.9-3.79 0.607-1.14 1.51-2.12 2.71-2.94 1.207-0.82 2.71-1.453 4.51-1.9 1.793-0.447 3.887-0.67 6.28-0.67v0c1.773 0 3.643 0.13 5.61 0.39 1.96 0.26 3.98 0.657 6.06 1.19v0c-0.08-0.907-0.357-1.747-0.83-2.52-0.467-0.773-1.12-1.443-1.96-2.01-0.84-0.56-1.85-0.993-3.03-1.3-1.18-0.313-2.52-0.47-4.02-0.47v0c-0.813 0-1.707 0.05-2.68 0.15-0.98 0.1-1.99 0.247-3.03 0.44-1.04 0.193-2.07 0.437-3.09 0.73-1.013 0.293-1.96 0.643-2.84 1.05v0l-2.2-5.93c1.093-0.393 2.263-0.75 3.51-1.07 1.24-0.327 2.513-0.61 3.82-0.85 1.3-0.233 2.6-0.417 3.9-0.55 1.307-0.127 2.57-0.19 3.79-0.19v0c5.387 0 9.39 1.373 12.01 4.12 2.62 2.753 3.93 6.97 3.93 12.65v0 12.55h-7.23v-2.71c-0.747 0.44-1.563 0.857-2.45 1.25-0.887 0.387-1.85 0.727-2.89 1.02-1.047 0.293-2.167 0.527-3.36 0.7-1.2 0.167-2.467 0.25-3.8 0.25v0c-2.247 0-4.22-0.243-5.92-0.73-1.7-0.487-3.12-1.163-4.26-2.03-1.14-0.86-1.997-1.873-2.57-3.04-0.58-1.16-0.87-2.423-0.87-3.79zM60.77-9.33v0c0 0.473 0.12 0.927 0.36 1.36 0.247 0.433 0.637 0.817 1.17 1.15 0.54 0.333 1.23 0.6 2.07 0.8 0.84 0.207 1.853 0.31 3.04 0.31v0c1.267 0 2.493-0.113 3.68-0.34 1.193-0.233 2.3-0.537 3.32-0.91 1.027-0.373 1.957-0.803 2.79-1.29 0.827-0.487 1.517-0.993 2.07-1.52v0-1.27c-1.107-0.307-2.2-0.567-3.28-0.78-1.08-0.207-2.113-0.373-3.1-0.5-0.987-0.12-1.917-0.203-2.79-0.25-0.867-0.053-1.627-0.08-2.28-0.08v0c-1.347 0-2.47 0.09-3.37 0.27-0.893 0.18-1.617 0.42-2.17 0.72-0.553 0.3-0.943 0.653-1.17 1.06-0.227 0.407-0.34 0.83-0.34 1.27zM96.04 0v-28.81h7.23v2.44c1.92-1.087 3.757-1.85 5.51-2.29 1.747-0.44 3.46-0.66 5.14-0.66v0c2.193 0 4.227 0.32 6.1 0.96 1.873 0.647 3.493 1.603 4.86 2.87 1.367 1.273 2.437 2.857 3.21 4.75 0.773 1.893 1.16 4.087 1.16 6.58v0 14.16h-7.2v-12.99c0-1.58-0.227-2.99-0.68-4.23-0.447-1.247-1.087-2.297-1.92-3.15-0.84-0.86-1.86-1.513-3.06-1.96-1.193-0.447-2.53-0.67-4.01-0.67v0c-0.78 0-1.583 0.083-2.41 0.25-0.82 0.16-1.623 0.39-2.41 0.69-0.793 0.3-1.557 0.673-2.29 1.12-0.733 0.453-1.4 0.963-2 1.53v0 19.41zM136.38-14.33v0c0-2.113 0.387-4.087 1.16-5.92 0.773-1.833 1.903-3.42 3.39-4.76 1.487-1.347 3.31-2.4 5.47-3.16 2.153-0.767 4.613-1.15 7.38-1.15v0c1.207 0 2.42 0.073 3.64 0.22 1.22 0.147 2.397 0.353 3.53 0.62 1.133 0.267 2.197 0.583 3.19 0.95 0.993 0.367 1.853 0.77 2.58 1.21v0l-3.34 5.45c-1.58-0.733-3.073-1.273-4.48-1.62-1.407-0.34-2.837-0.51-4.29-0.51v0c-1.66 0-3.147 0.217-4.46 0.65-1.32 0.433-2.44 1.037-3.36 1.81-0.92 0.773-1.62 1.683-2.1 2.73-0.48 1.047-0.72 2.19-0.72 3.43v0c0 1.24 0.257 2.383 0.77 3.43 0.513 1.047 1.237 1.95 2.17 2.71 0.94 0.76 2.073 1.353 3.4 1.78 1.32 0.433 2.797 0.65 4.43 0.65v0c1.787 0 3.473-0.253 5.06-0.76 1.587-0.5 3.063-1.173 4.43-2.02v0l3.35 5.44c-0.867 0.52-1.803 1.003-2.81 1.45-1.007 0.447-2.083 0.833-3.23 1.16-1.153 0.327-2.36 0.583-3.62 0.77-1.26 0.187-2.567 0.28-3.92 0.28v0c-2.747 0-5.21-0.373-7.39-1.12-2.187-0.747-4.037-1.783-5.55-3.11-1.513-1.327-2.67-2.893-3.47-4.7-0.807-1.807-1.21-3.777-1.21-5.91zM175.37 0v-40.48h7.22v13.87c1.513-0.833 3.203-1.493 5.07-1.98 1.86-0.487 3.817-0.73 5.87-0.73v0c2.373 0 4.51 0.35 6.41 1.05 1.893 0.7 3.5 1.703 4.82 3.01 1.32 1.313 2.333 2.907 3.04 4.78 0.707 1.867 1.06 3.973 1.06 6.32v0 14.16h-7.2v-13.87c0-1.367-0.22-2.613-0.66-3.74-0.44-1.133-1.083-2.107-1.93-2.92-0.847-0.813-1.877-1.443-3.09-1.89-1.207-0.453-2.577-0.68-4.11-0.68v0c-1.84 0-3.55 0.293-5.13 0.88-1.573 0.587-2.957 1.327-4.15 2.22v0 20zM215.58-14.5v0c0-1.953 0.397-3.82 1.19-5.6 0.8-1.787 1.947-3.363 3.44-4.73 1.5-1.367 3.337-2.457 5.51-3.27 2.173-0.813 4.643-1.22 7.41-1.22v0c2.753 0 5.23 0.41 7.43 1.23 2.207 0.82 4.08 1.947 5.62 3.38 1.54 1.433 2.72 3.12 3.54 5.06 0.82 1.933 1.23 4.007 1.23 6.22v0c0 0.28-0.003 0.577-0.01 0.89-0.007 0.32-0.027 0.61-0.06 0.87v0h-27.25c0.313 0.86 0.813 1.65 1.5 2.37 0.693 0.713 1.56 1.33 2.6 1.85 1.047 0.52 2.253 0.923 3.62 1.21 1.367 0.287 2.88 0.43 4.54 0.43v0c1.66 0 3.31-0.177 4.95-0.53 1.647-0.347 3.22-0.79 4.72-1.33v0l2.44 5.52c-0.947 0.44-1.903 0.827-2.87 1.16-0.967 0.333-1.977 0.61-3.03 0.83-1.047 0.22-2.143 0.387-3.29 0.5-1.153 0.113-2.363 0.17-3.63 0.17v0c-3.24 0-6.08-0.39-8.52-1.17-2.44-0.78-4.483-1.847-6.13-3.2-1.64-1.347-2.877-2.933-3.71-4.76-0.827-1.82-1.24-3.78-1.24-5.88zM223.63-17.31h19.66c-0.26-0.8-0.663-1.543-1.21-2.23-0.547-0.693-1.227-1.297-2.04-1.81-0.813-0.513-1.757-0.917-2.83-1.21-1.073-0.293-2.253-0.44-3.54-0.44v0c-1.367 0-2.613 0.157-3.74 0.47-1.12 0.307-2.103 0.72-2.95 1.24-0.847 0.52-1.55 1.123-2.11 1.81-0.567 0.68-0.98 1.403-1.24 2.17zM254.96 0l17.65-22.8h-14.77v-6.01h28.17l-17.77 22.8h16.79v6.01z" fill="#ffffff" fill-rule="nonzero" stroke="none" stroke-width="1" stroke-linecap="butt" stroke-linejoin="miter" stroke-miterlimit="10" stroke-dasharray="" stroke-dashoffset="0" font-family="none" font-weight="none" font-size="none" text-anchor="none" style="mix-blend-mode: normal" data-fill-palette-color="primary" opacity="1"></path><path transform="translate(0,88.08)" d="M3.17-19.19v0c0-2.88 0.53-5.517 1.59-7.91 1.06-2.393 2.547-4.447 4.46-6.16 1.907-1.72 4.2-3.053 6.88-4 2.68-0.94 5.647-1.41 8.9-1.41v0c3.24 0 6.203 0.47 8.89 1.41 2.687 0.947 4.983 2.28 6.89 4 1.913 1.713 3.4 3.767 4.46 6.16 1.06 2.393 1.59 5.03 1.59 7.91v0c0 2.9-0.53 5.557-1.59 7.97-1.06 2.42-2.547 4.5-4.46 6.24-1.907 1.74-4.203 3.093-6.89 4.06-2.687 0.973-5.65 1.46-8.89 1.46v0c-3.253 0-6.22-0.487-8.9-1.46-2.68-0.967-4.973-2.32-6.88-4.06-1.913-1.74-3.4-3.82-4.46-6.24-1.06-2.413-1.59-5.07-1.59-7.97zM10.91-19.19v0c0 1.967 0.357 3.74 1.07 5.32 0.707 1.58 1.69 2.927 2.95 4.04 1.26 1.12 2.75 1.98 4.47 2.58 1.713 0.6 3.58 0.9 5.6 0.9v0c2.02 0 3.887-0.3 5.6-0.9 1.72-0.6 3.207-1.46 4.46-2.58 1.253-1.113 2.237-2.46 2.95-4.04 0.72-1.58 1.08-3.353 1.08-5.32v0c0-1.967-0.36-3.733-1.08-5.3-0.713-1.56-1.697-2.88-2.95-3.96-1.253-1.087-2.74-1.913-4.46-2.48-1.713-0.573-3.58-0.86-5.6-0.86v0c-2.02 0-3.887 0.287-5.6 0.86-1.72 0.567-3.21 1.393-4.47 2.48-1.26 1.08-2.243 2.4-2.95 3.96-0.713 1.567-1.07 3.333-1.07 5.3zM54.71 0v-40.5h7.23v40.5zM75-32.74v0c-0.713 0-1.36-0.1-1.94-0.3-0.58-0.207-1.073-0.483-1.48-0.83-0.407-0.353-0.72-0.763-0.94-1.23-0.22-0.46-0.33-0.95-0.33-1.47v0c0-0.54 0.11-1.04 0.33-1.5 0.22-0.467 0.533-0.87 0.94-1.21 0.407-0.34 0.9-0.613 1.48-0.82 0.58-0.207 1.227-0.31 1.94-0.31v0c0.733 0 1.39 0.103 1.97 0.31 0.573 0.207 1.063 0.48 1.47 0.82 0.407 0.34 0.72 0.743 0.94 1.21 0.22 0.46 0.33 0.96 0.33 1.5v0c0 0.52-0.11 1.01-0.33 1.47-0.22 0.467-0.533 0.877-0.94 1.23-0.407 0.347-0.897 0.623-1.47 0.83-0.58 0.2-1.237 0.3-1.97 0.3zM71.39 0v-28.81h7.22v28.81zM97.53 0l-13.64-28.83h8.37l7.5 17.33 1.95 4.86 1.95-4.86 7.5-17.33h8.37l-13.65 28.83zM123.22-14.5v0c0-1.953 0.397-3.82 1.19-5.6 0.8-1.787 1.95-3.363 3.45-4.73 1.493-1.367 3.327-2.457 5.5-3.27 2.173-0.813 4.643-1.22 7.41-1.22v0c2.753 0 5.233 0.41 7.44 1.23 2.2 0.82 4.07 1.947 5.61 3.38 1.54 1.433 2.72 3.12 3.54 5.06 0.82 1.933 1.23 4.007 1.23 6.22v0c0 0.28-0.003 0.577-0.01 0.89-0.007 0.32-0.027 0.61-0.06 0.87v0h-27.25c0.313 0.86 0.817 1.65 1.51 2.37 0.687 0.713 1.553 1.33 2.6 1.85 1.04 0.52 2.243 0.923 3.61 1.21 1.367 0.287 2.88 0.43 4.54 0.43v0c1.66 0 3.313-0.177 4.96-0.53 1.64-0.347 3.21-0.79 4.71-1.33v0l2.44 5.52c-0.947 0.44-1.903 0.827-2.87 1.16-0.967 0.333-1.977 0.61-3.03 0.83-1.047 0.22-2.143 0.387-3.29 0.5-1.147 0.113-2.357 0.17-3.63 0.17v0c-3.24 0-6.08-0.39-8.52-1.17-2.44-0.78-4.483-1.847-6.13-3.2-1.64-1.347-2.877-2.933-3.71-4.76-0.827-1.82-1.24-3.78-1.24-5.88zM131.27-17.31h19.66c-0.26-0.8-0.663-1.543-1.21-2.23-0.547-0.693-1.227-1.297-2.04-1.81-0.813-0.513-1.757-0.917-2.83-1.21-1.073-0.293-2.253-0.44-3.54-0.44v0c-1.367 0-2.613 0.157-3.74 0.47-1.12 0.307-2.103 0.72-2.95 1.24-0.847 0.52-1.55 1.123-2.11 1.81-0.56 0.68-0.973 1.403-1.24 2.17zM166.36 0v-28.81h7.22v4.15c1.6-1.187 3.287-2.21 5.06-3.07 1.773-0.867 3.54-1.527 5.3-1.98v0l2.12 6.61c-2.787 0.28-5.233 0.903-7.34 1.87-2.107 0.967-3.82 2.33-5.14 4.09v0 17.14z" fill="#ffffff" fill-rule="nonzero" stroke="none" stroke-width="1" stroke-linecap="butt" stroke-linejoin="miter" stroke-miterlimit="10" stroke-dasharray="" stroke-dashoffset="0" font-family="none" font-weight="none" font-size="none" text-anchor="none" style="mix-blend-mode: normal" data-fill-palette-color="primary" opacity="1"></path></g></svg></g></svg></g></svg></g></svg></g><g transform="matrix(1,0,0,1,0,22.207661111874415)"><svg viewBox="0 0 244.43136 123.81130732688851" height="123.81130732688851" width="244.43136"><g><svg xmlns="http://www.w3.org/2000/svg" xmlns:xlink="http://www.w3.org/1999/xlink" version="1.1" x="0" y="0" viewBox="9.535241998455113 29.5 80.94321897062756 41" enable-background="new 0 0 100 100" xml:space="preserve" height="123.81130732688851" width="244.43136" class="icon-icon-0" data-fill-palette-color="accent" id="icon-0"><path d="M90 29.5H30c-0.2 0-0.4 0.1-0.4 0.3l-20 40c-0.2 0.3 0.1 0.7 0.4 0.7h60c0.2 0 0.4-0.1 0.4-0.3l20-40C90.6 29.9 90.4 29.5 90 29.5zM69.7 69.5H10.8l19.5-39h58.9L69.7 69.5z" fill="#ffffff" data-fill-palette-color="accent"></path></svg></g></svg></g></svg></g><defs></defs></svg><rect width="395.52" height="99.42911616985485" fill="none" stroke="none" visibility="hidden"></rect></g></svg></g></svg>