<svg xmlns="http://www.w3.org/2000/svg" version="1.1" xmlns:xlink="http://www.w3.org/1999/xlink" xmlns:svgjs="http://svgjs.dev/svgjs" width="1500" height="1500" viewBox="0 0 1500 1500"><rect width="1500" height="1500" fill="#000000"></rect><g transform="matrix(0.6666666666666666,0,0,0.6666666666666666,249.39393939393938,438.5856950067477)"><svg viewBox="0 0 396 247" data-background-color="#ffffff" preserveAspectRatio="xMidYMid meet" height="935" width="1500" xmlns="http://www.w3.org/2000/svg" xmlns:xlink="http://www.w3.org/1999/xlink"><g id="tight-bounds" transform="matrix(1,0,0,1,0.2400000000000091,-0.09999999999999432)"><svg viewBox="0 0 395.52 247.2" height="247.2" width="395.52"><g><svg></svg></g><g><svg viewBox="0 0 395.52 247.2" height="247.2" width="395.52"><g transform="matrix(1,0,0,1,140.9343381818182,47.215199999999996)"><svg viewBox="0 0 113.65132363636363 152.7696" height="152.7696" width="113.65132363636363"><g><svg viewBox="0 0 113.65132363636363 152.7696" height="152.7696" width="113.65132363636363"><g><svg viewBox="0 0 113.65132363636363 152.7696" height="152.7696" width="113.65132363636363"><g><svg viewBox="0 0 113.65132363636363 152.7696" height="152.7696" width="113.65132363636363"><g id="textblocktransform"><svg viewBox="0 0 113.65132363636363 152.7696" height="152.7696" width="113.65132363636363" id="textblock"><g><svg viewBox="0 0 113.65132363636363 152.7696" height="152.7696" width="113.65132363636363"><g transform="matrix(1,0,0,1,0,0)"><svg width="113.65132363636363" viewBox="1.1 -33 24.549999999999997 33" height="152.7696" data-palette-color="#000000"><path d="M14.7 0L1.1 0 1.1-0.5 2-0.8Q3-1.15 3.35-1.75 3.7-2.35 3.7-3.35L3.7-3.35Q3.75-6.35 3.75-9.4 3.75-12.45 3.75-15.5L3.75-15.5 3.75-17.5Q3.75-20.5 3.75-23.53 3.75-26.55 3.7-29.55L3.7-29.55Q3.7-30.55 3.43-31.15 3.15-31.75 2.2-32.1L2.2-32.1 1.1-32.5 1.1-33 25.3-33 25.65-24.7 25.15-24.7 22.3-29.95Q21.8-30.9 21.15-31.45 20.5-32 19.35-32L19.35-32 11.3-32Q11.25-28.45 11.25-24.75 11.25-21.05 11.25-17.4L11.25-17.4 16.45-17.4Q17.6-17.4 18.15-17.9 18.7-18.4 19.2-19.35L19.2-19.35 20.25-21.25 20.75-21.25 20.75-12.5 20.25-12.5 19.15-14.4Q18.65-15.3 18.13-15.85 17.6-16.4 16.45-16.4L16.45-16.4 11.25-16.4Q11.25-12.9 11.25-9.73 11.25-6.55 11.3-3.5L11.3-3.5Q11.3-1.55 13.2-0.95L13.2-0.95 14.7-0.5 14.7 0Z" opacity="1" transform="matrix(1,0,0,1,0,0)" fill="#ffffff" class="wordmark-text-0" data-fill-palette-color="primary" id="text-0"></path></svg></g></svg></g></svg></g></svg></g></svg></g></svg></g></svg></g><path d="M323.236 41.215L323.236 0 76.036 0 76.036 247.2 323.236 247.2 323.236 205.985 309.459 205.985 309.459 233.423 89.813 233.423 89.813 13.777 309.459 13.777 309.459 41.215Z" fill="#ffffff" stroke="transparent" data-fill-palette-color="primary"></path></svg></g><defs></defs></svg><rect width="395.52" height="247.2" fill="none" stroke="none" visibility="hidden"></rect></g></svg></g></svg>